<?xml version="1.0" standalone="no"?>
<!DOCTYPE svg PUBLIC "-//W3C//DTD SVG 20010904//EN"
 "http://www.w3.org/TR/2001/REC-SVG-20010904/DTD/svg10.dtd">
<svg version="1.0" xmlns="http://www.w3.org/2000/svg"
 width="89.000000pt" height="57.000000pt" viewBox="0 0 89.000000 57.000000"
 preserveAspectRatio="xMidYMid meet">

<g transform="translate(0.000000,57.000000) scale(0.100000,-0.100000)"
fill="#000000" stroke="none">
<path d="M327 512 c-14 -15 -17 -40 -17 -129 0 -144 -1 -143 145 -143 l109 0
37 -36 c43 -42 69 -40 69 3 0 16 9 36 20 46 17 14 20 31 22 104 3 131 1 146
-18 160 -13 9 -64 13 -184 13 -149 0 -169 -2 -183 -18z m221 -48 c12 -8 22
-25 22 -38 0 -26 -46 -86 -66 -86 -21 0 -16 38 6 50 24 13 27 50 4 50 -8 0
-24 -5 -34 -10 -29 -16 -38 10 -10 32 27 22 49 23 78 2z m-20 -151 c5 -17 -26
-29 -40 -15 -6 6 -7 15 -3 22 9 14 37 9 43 -7z"/>
<path d="M192 388 c-8 -8 -12 -51 -12 -128 0 -104 2 -119 20 -135 11 -10 20
-31 20 -47 0 -44 26 -46 69 -4 l37 36 107 0 c94 0 109 2 127 20 25 25 25 32 1
54 -19 17 -20 17 -23 -6 -3 -22 -6 -23 -118 -26 -101 -2 -117 -5 -137 -24
l-23 -21 0 21 c0 15 -6 22 -20 22 -19 0 -20 7 -20 105 l0 105 25 0 c18 0 25 5
25 20 0 16 -7 20 -33 20 -18 0 -38 -5 -45 -12z"/>
</g>
</svg>
