<?xml version="1.0" standalone="no"?>
<!DOCTYPE svg PUBLIC "-//W3C//DTD SVG 20010904//EN"
 "http://www.w3.org/TR/2001/REC-SVG-20010904/DTD/svg10.dtd">
<svg version="1.0" xmlns="http://www.w3.org/2000/svg"
 width="576.000000pt" height="389.000000pt" viewBox="0 0 576.000000 389.000000"
 preserveAspectRatio="xMidYMid meet">

<g transform="translate(0.000000,389.000000) scale(0.100000,-0.100000)"
fill="#000000" stroke="none">
<path d="M2636 3560 c-46 -9 -57 -23 -54 -70 4 -42 20 -47 83 -29 29 9 40 16
32 21 -7 5 0 6 16 2 44 -10 79 3 75 28 -2 15 -13 24 -38 31 -19 5 -39 13 -44
18 -11 10 -14 10 -70 -1z"/>
<path d="M2504 3459 c-16 -17 -16 -22 -4 -29 25 -16 49 -11 61 11 9 17 8 23
-2 30 -22 13 -34 11 -55 -12z"/>
<path d="M3402 3463 c-20 -17 -26 -36 -23 -75 1 -14 10 -18 40 -18 28 0 44 -6
54 -20 8 -11 17 -17 21 -12 4 4 14 -1 21 -11 12 -16 14 -15 24 14 6 18 11 40
11 50 0 31 -36 59 -75 59 -20 0 -37 6 -43 16 -7 13 -11 13 -30 -3z"/>
<path d="M3539 3228 c0 -50 -3 -69 -10 -93 -2 -5 3 -33 10 -62 7 -28 9 -62 5
-75 -7 -24 -7 -23 -46 117 -6 22 -17 45 -24 51 -8 6 -14 25 -14 43 0 29 -3 31
-33 31 -29 0 -44 -11 -101 -71 -38 -39 -83 -77 -101 -85 -41 -17 -53 -33 -21
-27 28 6 42 -12 26 -32 -6 -8 -9 -19 -5 -25 3 -5 -1 -10 -9 -10 -23 0 -26 -11
-48 -153 -29 -197 -30 -192 11 -192 33 0 35 2 48 55 8 30 23 83 34 118 10 34
19 73 19 86 0 12 2 25 5 28 7 7 204 -94 273 -141 34 -22 67 -41 74 -41 8 0 22
14 31 30 10 17 24 30 31 30 15 0 36 85 36 148 0 69 -43 207 -80 258 -17 24
-55 49 -87 59 -22 6 -23 4 -24 -47z m-77 -173 c41 -83 31 -100 -37 -64 -25 13
-55 32 -68 41 l-22 18 40 35 c22 19 43 34 48 35 4 0 22 -29 39 -65z"/>
<path d="M1716 3140 c-22 -4 -44 -14 -51 -23 -7 -10 -20 -13 -38 -10 -22 4
-36 -3 -71 -35 -24 -22 -53 -43 -66 -47 -19 -6 -21 -12 -17 -41 3 -18 1 -36
-4 -40 -16 -9 19 -42 53 -49 22 -5 35 -2 52 14 12 12 27 21 33 21 6 0 21 11
34 25 17 17 31 22 47 18 16 -4 22 -1 22 10 0 9 -5 19 -10 22 -13 8 -2 27 13
22 7 -2 20 2 29 11 15 13 20 13 34 1 15 -12 16 -12 10 7 -9 30 18 52 33 27 9
-15 10 -14 11 13 0 56 -31 70 -114 54z"/>
<path d="M1810 2893 c1 -4 7 -19 15 -33 19 -33 19 -60 -1 -60 -18 0 -100 45
-130 72 -20 18 -21 18 -43 -6 -32 -34 -31 -105 5 -187 24 -55 28 -79 30 -174
1 -60 5 -158 8 -216 l6 -107 -92 -62 c-69 -46 -98 -60 -115 -55 -16 4 -23 13
-23 31 0 27 -48 140 -56 132 -2 -3 5 -26 17 -52 28 -65 18 -82 -14 -21 -27 53
-57 78 -80 69 -8 -3 -25 8 -40 25 -24 29 -26 29 -41 12 -32 -36 -37 -80 -25
-228 l11 -142 -45 -63 c-25 -35 -57 -73 -71 -85 -32 -28 -32 -34 -1 -72 35
-41 59 -47 91 -22 15 12 35 21 46 21 37 0 74 63 63 107 -4 17 -1 23 10 23 8 0
23 16 32 35 18 39 33 46 33 16 0 -11 5 -23 10 -26 11 -7 13 -54 4 -79 -3 -9
-14 -16 -24 -16 -29 0 -34 -36 -11 -66 12 -15 21 -36 22 -48 1 -22 26 -95 29
-86 9 22 29 244 29 322 l0 98 29 -6 c16 -3 40 -1 53 6 56 29 219 143 219 154
0 6 -9 26 -20 44 -22 36 -18 52 22 88 36 33 53 40 45 21 -4 -11 -1 -17 6 -17
8 0 27 28 43 62 16 34 48 91 72 127 34 51 41 71 37 93 -5 21 -3 28 9 28 8 0
20 9 26 19 9 17 4 23 -33 43 -39 22 -42 26 -45 72 l-3 49 43 -6 c34 -5 50 -14
79 -48 32 -37 38 -40 57 -30 29 16 28 26 -10 81 -27 39 -50 56 -146 106 -135
69 -132 68 -132 57z"/>
<path d="M2917 2863 c-13 -12 -7 -43 7 -43 19 0 28 14 20 34 -7 17 -16 20 -27
9z"/>
<path d="M2413 2733 c-17 -6 -16 -28 1 -42 10 -8 16 -8 25 2 13 17 -7 47 -26
40z"/>
<path d="M2696 2732 c-6 -9 61 -82 75 -82 17 0 9 17 -26 53 -39 40 -41 41 -49
29z"/>
<path d="M3420 2719 c-8 -15 -7 -21 4 -25 19 -7 36 3 36 21 0 22 -29 26 -40 4z"/>
<path d="M2510 2685 c0 -27 9 -32 28 -13 18 18 14 38 -8 38 -15 0 -20 -7 -20
-25z"/>
<path d="M3148 2603 c-10 -2 -15 -10 -11 -19 3 -9 -1 -14 -14 -14 -20 0 -43
-18 -43 -33 0 -5 11 -6 25 -3 14 4 25 3 25 -1 0 -5 -47 -150 -105 -323 -74
-226 -101 -317 -92 -322 7 -4 15 -4 19 0 4 4 56 155 116 335 60 181 114 333
121 340 6 6 11 19 11 29 0 18 -15 21 -52 11z"/>
<path d="M1380 2561 c0 -9 -36 -23 -91 -35 -36 -8 -56 -73 -35 -113 31 -56 44
-67 61 -53 11 9 14 22 9 43 -6 27 -4 29 15 24 16 -4 22 0 27 18 3 12 17 32 30
44 26 23 31 50 12 69 -14 14 -28 16 -28 3z"/>
<path d="M4253 2464 c-3 -8 -1 -25 5 -37 5 -12 15 -37 22 -54 7 -18 19 -33 26
-33 17 0 18 -22 3 -37 -14 -14 -8 -55 9 -61 7 -2 26 11 42 28 17 18 32 31 33
29 2 -2 8 -16 15 -31 12 -30 38 -36 73 -18 24 13 24 27 0 35 -11 3 -21 19 -25
37 -7 36 -23 58 -42 58 -13 0 -40 22 -94 75 -29 28 -58 32 -67 9z"/>
<path d="M2024 2355 c-9 -24 22 -53 38 -37 9 9 10 17 2 29 -15 24 -33 27 -40
8z"/>
<path d="M3790 2350 c-11 -7 -12 -12 -3 -21 14 -14 46 -4 41 13 -6 16 -20 19
-38 8z"/>
<path d="M2521 2196 l-23 -25 43 -39 c73 -65 211 -185 269 -234 54 -45 56 -46
77 -29 l22 18 -57 55 c-48 45 -212 194 -288 260 -20 18 -21 17 -43 -6z"/>
<path d="M1770 2170 c-8 -5 -11 -12 -8 -16 10 -9 38 3 38 16 0 12 -10 13 -30
0z"/>
<path d="M3589 1865 c-45 -25 -61 -155 -19 -155 15 0 30 -18 30 -35 0 -2 -17
-13 -37 -25 -21 -12 -53 -41 -71 -66 -18 -24 -39 -44 -46 -44 -21 0 -68 87
-61 110 8 26 -3 60 -19 60 -7 0 -21 -6 -31 -14 -18 -13 -18 -18 -7 -51 9 -23
10 -40 4 -48 -15 -18 56 -158 90 -176 24 -14 29 -13 67 12 22 15 44 27 47 27
6 0 4 -34 -12 -210 -5 -60 -28 -126 -110 -320 -24 -58 -48 -172 -70 -338 -8
-58 0 -72 42 -72 18 0 25 17 59 165 21 91 41 165 45 165 3 0 21 -42 39 -92 18
-51 42 -111 52 -132 26 -53 24 -90 -3 -109 -22 -15 -22 -16 25 -16 56 -1 93
14 79 32 -7 8 -7 38 -2 82 14 112 29 226 39 280 5 28 19 104 31 169 12 66 24
125 28 130 4 6 5 106 4 221 -4 236 -7 247 -72 266 -22 7 -40 14 -40 16 0 2 9
20 20 40 11 21 20 45 20 53 0 9 5 21 11 27 16 16 3 47 -17 39 -8 -3 -28 1 -44
9 -35 18 -38 18 -71 0z m71 -179 c0 -2 -9 -6 -20 -9 -11 -3 -18 -1 -14 4 5 9
34 13 34 5z m-40 -818 c-1 -66 -2 -71 -15 -54 -8 11 -15 32 -15 47 0 29 16 79
25 79 3 0 5 -33 5 -72z"/>
<path d="M1870 1841 c0 -16 6 -21 26 -21 33 0 30 33 -4 38 -17 3 -22 -2 -22
-17z"/>
<path d="M3937 1854 c-16 -16 -6 -34 19 -34 19 0 25 5 22 17 -3 19 -29 29 -41
17z"/>
<path d="M4110 1743 c0 -89 -5 -98 -49 -98 -63 0 -69 -12 -67 -128 2 -65 8
-115 18 -137 38 -87 41 -109 22 -166 -17 -51 -17 -55 -1 -71 13 -13 34 -16
107 -15 l91 1 -7 -157 c-3 -92 -2 -167 3 -182 12 -28 28 270 18 311 -5 19 0
30 21 48 22 19 25 28 19 54 -13 55 -7 168 15 292 22 127 21 195 -6 247 -13 25
-19 28 -67 28 -28 0 -65 7 -81 15 -15 8 -30 15 -32 15 -2 0 -4 -26 -4 -57z"/>
<path d="M1764 1556 c-9 -23 0 -51 16 -51 10 0 14 9 13 27 -1 18 4 28 15 31
10 3 5 5 -11 6 -16 1 -30 -5 -33 -13z"/>
<path d="M2000 1335 c-22 -26 7 -46 39 -26 12 8 12 12 2 25 -17 20 -25 20 -41
1z"/>
<path d="M3807 1333 c-23 -22 14 -53 39 -32 11 9 11 15 3 25 -12 15 -31 18
-42 7z"/>
<path d="M1352 1177 c-31 -15 -42 -26 -39 -39 3 -9 -3 -24 -13 -33 -17 -15
-21 -15 -40 -2 -31 21 -60 11 -60 -22 0 -14 4 -32 9 -40 9 -14 1 -45 -30 -121
-11 -25 -31 -88 -45 -140 -39 -146 -38 -142 -23 -139 8 2 23 -2 35 -8 19 -11
22 -9 34 27 7 22 17 40 22 40 4 0 8 4 8 10 0 19 51 120 60 120 6 0 10 -44 10
-105 l0 -105 33 0 33 0 17 108 c20 123 42 295 52 400 7 82 5 83 -63 49z m35
-109 c-3 -8 -6 -5 -6 6 -1 11 2 17 5 13 3 -3 4 -12 1 -19z"/>
<path d="M2381 931 c-8 -14 -7 -22 5 -32 14 -11 18 -10 30 6 10 13 11 22 3 32
-16 18 -26 16 -38 -6z"/>
<path d="M2495 869 c-4 -6 -5 -12 -2 -15 2 -3 7 2 10 11 7 17 1 20 -8 4z"/>
<path d="M3145 800 c3 -5 8 -10 11 -10 2 0 4 5 4 10 0 6 -5 10 -11 10 -5 0 -7
-4 -4 -10z"/>
<path d="M2903 784 c-3 -8 -1 -20 5 -26 16 -16 42 -2 42 22 0 24 -38 28 -47 4z"/>
<path d="M3041 784 c0 -11 3 -14 6 -6 3 7 2 16 -1 19 -3 4 -6 -2 -5 -13z"/>
<path d="M4227 703 c-12 -11 -8 -23 8 -23 8 0 15 7 15 15 0 16 -12 20 -23 8z"/>
<path d="M4127 633 c-12 -11 -8 -23 8 -23 8 0 15 7 15 15 0 16 -12 20 -23 8z"/>
<path d="M3250 530 c0 -11 120 -74 127 -66 11 10 -9 26 -48 37 -21 7 -44 18
-50 26 -13 15 -29 17 -29 3z"/>
<path d="M3550 460 c0 -5 8 -10 19 -10 10 0 33 -3 51 -7 24 -4 32 -3 28 7 -5
15 -98 25 -98 10z"/>
<path d="M2235 400 c-11 -5 -37 -9 -57 -9 -37 -1 -88 -19 -88 -31 0 -3 6 -15
14 -26 16 -21 8 -23 129 36 61 30 63 56 2 30z"/>
<path d="M4222 330 c-11 -22 -17 -40 -12 -40 16 0 60 47 60 64 0 29 -26 17
-48 -24z"/>
<path d="M4057 310 c-14 -16 -30 -30 -36 -30 -6 0 -11 -4 -11 -10 0 -17 26
-11 45 10 17 18 41 19 30 0 -3 -5 -1 -11 5 -15 5 -3 10 2 10 12 0 10 3 28 6
41 9 33 -19 28 -49 -8z"/>
<path d="M1470 304 c-12 -32 -10 -36 27 -38 15 -2 40 -6 54 -10 15 -4 39 -6
55 -4 27 3 26 4 -22 34 -28 17 -63 34 -77 38 -23 5 -29 2 -37 -20z"/>
</g>
</svg>
